<?xml version="1.0" encoding="UTF-8" standalone="no"?>
<svg
   version="1.1"
   width="5000px"
   height="5000px"
   style="shape-rendering:geometricPrecision; text-rendering:geometricPrecision; image-rendering:optimizeQuality; fill-rule:evenodd; clip-rule:evenodd"
   id="svg34"
   sodipodi:docname="icon.svg"
   inkscape:version="1.2.1 (9c6d41e410, 2022-07-14)"
   xmlns:inkscape="http://www.inkscape.org/namespaces/inkscape"
   xmlns:sodipodi="http://sodipodi.sourceforge.net/DTD/sodipodi-0.dtd"
   xmlns="http://www.w3.org/2000/svg"
   xmlns:svg="http://www.w3.org/2000/svg">
  <defs
     id="defs38" />
  <sodipodi:namedview
     id="namedview36"
     pagecolor="#505050"
     bordercolor="#eeeeee"
     borderopacity="1"
     inkscape:showpageshadow="0"
     inkscape:pageopacity="0"
     inkscape:pagecheckerboard="0"
     inkscape:deskcolor="#505050"
     showgrid="false"
     inkscape:zoom="0.0472"
     inkscape:cx="1991.5254"
     inkscape:cy="2584.7458"
     inkscape:window-width="1269"
     inkscape:window-height="761"
     inkscape:window-x="46"
     inkscape:window-y="66"
     inkscape:window-maximized="0"
     inkscape:current-layer="svg34" />
  <g
     id="g8"
     style="display:inline">
    <path
       style="opacity:1"
       fill="#000000"
       d="m 2452.5,924.5 c 324.9,-7.207 623.9,76.29 897,250.5 264.4,174.07 460.57,405.9 588.5,695.5 121.5,285.81 156.83,582.14 106,889 -63.23,345.7 -221.4,638.87 -474.5,879.5 -88.49,82.23 -184.82,153.73 -289,214.5 36.87,69.25 73.87,138.41 111,207.5 -4.66,-0.32 -9.32,-0.99 -14,-2 -208.08,-49.86 -416.08,-100.03 -624,-150.5 101.67,-156 203.33,-312 305,-468 31.74,57.81 63.24,115.81 94.5,174 228.31,-135.97 400.64,-323.31 517,-562 120.19,-257.81 154.52,-526.81 103,-807 -60.4,-293.09 -202.23,-537.93 -425.5,-734.5 -228.05,-194.6 -492.71,-299.6 -794,-315 -326.79,-9.63 -616.79,87.37 -870,291 -15.67,13.5 -31.33,27 -47,40.5 -60.49,-66.66 -120.82,-133.49 -181,-200.5 261.78,-233.49 568.45,-366.157 920,-398 25.82,-1.63 51.48,-3.13 77,-4.5 z"
       id="path6" />
  </g>
  <g
     id="g12">
    <path
       style="opacity:1"
       fill="#000000"
       d="M 2393.5,1447.5 C 2432.5,1447.5 2471.5,1447.5 2510.5,1447.5C 2510.5,1758.17 2510.5,2068.83 2510.5,2379.5C 2537.09,2388.22 2559.92,2402.88 2579,2423.5C 2582.62,2427.91 2586.12,2432.41 2589.5,2437C 2799.83,2437.5 3010.17,2437.67 3220.5,2437.5C 3220.5,2496.5 3220.5,2555.5 3220.5,2614.5C 3010.17,2614.33 2799.83,2614.5 2589.5,2615C 2556.41,2659.17 2512.08,2681.67 2456.5,2682.5C 2394.07,2681.21 2346.57,2654.21 2314,2601.5C 2281.57,2536.17 2288.91,2475.84 2336,2420.5C 2352.28,2403.56 2371.28,2390.56 2393,2381.5C 2393.5,2070.17 2393.67,1758.83 2393.5,1447.5 Z"
       id="path10" />
  </g>
  <g
     id="g16">
    <path
       style="opacity:1"
       fill="#000000"
       d="M 1223.5,1587.5 C 1297.29,1639.45 1370.95,1691.61 1444.5,1744C 1341.95,1887.98 1272.12,2046.81 1235,2220.5C 1234.74,2222.65 1233.74,2224.32 1232,2225.5C 1146.79,2202.91 1061.62,2180.07 976.5,2157C 974.777,2156.48 973.444,2155.48 972.5,2154C 1018.63,1947.97 1102.29,1759.14 1223.5,1587.5 Z"
       id="path14" />
  </g>
  <g
     id="g20">
    <path
       style="opacity:1"
       fill="#000000"
       d="M 936.5,2438.5 C 1026.52,2441.36 1116.52,2444.7 1206.5,2448.5C 1204.19,2531.99 1209.35,2614.99 1222,2697.5C 1228.17,2732.34 1234.84,2767.01 1242,2801.5C 1159.78,2841.51 1077.28,2880.85 994.5,2919.5C 950.474,2762.24 931.14,2601.91 936.5,2438.5 Z"
       id="path18" />
  </g>
  <g
     id="g24">
    <path
       style="opacity:1"
       fill="#000000"
       d="M 1298.5,2980.5 C 1300.89,2981.22 1302.39,2982.89 1303,2985.5C 1354.37,3110.67 1423.21,3224.67 1509.5,3327.5C 1442.15,3386.84 1374.49,3445.84 1306.5,3504.5C 1212.02,3393.83 1134.69,3271.66 1074.5,3138C 1149.05,3085.27 1223.72,3032.77 1298.5,2980.5 Z"
       id="path22" />
  </g>
  <g
     id="g28">
    <path
       style="opacity:1"
       fill="#000000"
       d="M 1719.5,3528.5 C 1803.17,3590.87 1893.17,3643.37 1989.5,3686C 2006.1,3692.63 2022.43,3699.63 2038.5,3707C 2005.01,3790.14 1971.68,3873.31 1938.5,3956.5C 1803.2,3904.29 1678.03,3834.96 1563,3748.5C 1562.58,3746.21 1563.25,3744.21 1565,3742.5C 1616.33,3671.01 1667.83,3599.68 1719.5,3528.5 Z"
       id="path26" />
  </g>
  <g
     id="g32">
    <path
       style="opacity:1"
       fill="#000000"
       d="M 2277.5,3772.5 C 2368.87,3787.76 2460.87,3793.93 2553.5,3791C 2581.52,3877.4 2609.36,3963.9 2637,4050.5C 2637.5,4052.47 2637.66,4054.47 2637.5,4056.5C 2500.39,4067.92 2364.05,4061.92 2228.5,4038.5C 2244.65,3949.8 2260.98,3861.13 2277.5,3772.5 Z"
       id="path30" />
  </g>
</svg>
